<?xml version="1.0"?>
<svg xmlns="http://www.w3.org/2000/svg" height="512px" viewBox="0 -37 384.516 384" width="512px" class=""><g><path d="m354.515625 53.484375h-105.894531c-4.839844 27.335937-28.601563 47.261719-56.363282 47.261719-27.761718 0-51.523437-19.925782-56.363281-47.261719h-105.894531c-16.5625.019531-29.9804688 13.4375-30 30v196.773437c.0195312 16.5625 13.4375 29.980469 30 30h324.515625c16.5625-.019531 29.980469-13.4375 30-30v-196.773437c-.019531-16.5625-13.4375-29.980469-30-30zm-184.195313 208.582031c0 5.519532-4.476562 10-10 10h-111.125c-5.523437 0-10-4.480468-10-10v-132.128906c0-5.523438 4.476563-10 10-10h111.128907c5.523437 0 10 4.476562 10 10v132.128906zm53.875-106.164062h55.804688c5.523438 0 10 4.480468 10 10 0 5.523437-4.476562 10-10 10h-55.804688c-5.523437 0-10-4.476563-10-10 0-5.519532 4.476563-10 10-10zm105.804688 83.871094h-105.804688c-5.523437 0-10-4.476563-10-10 0-5.519532 4.476563-10 10-10h105.804688c5.523438 0 10 4.480468 10 10 0 5.523437-4.476562 10-10 10zm0 0" data-original="#000000" class="active-path" data-old_color="#b8e994" fill="#b8e994"/><path d="m192.257812 80.742188c20.566407-.023438 37.234376-16.691407 37.257813-37.257813v-43.226563h-74.515625v43.226563c.023438 20.566406 16.691406 37.234375 37.257812 37.257813zm0 0" data-original="#000000" class="active-path" data-old_color="#b8e994" fill="#b8e994"/><path d="m59.195312 139.9375h91.128907v112.128906h-91.128907zm0 0" data-original="#000000" class="active-path" data-old_color="#b8e994" fill="#b8e994"/></g> </svg>
