<?xml version="1.0"?>
<svg xmlns="http://www.w3.org/2000/svg" xmlns:xlink="http://www.w3.org/1999/xlink" version="1.1" id="Capa_1" x="0px" y="0px" viewBox="0 0 504.269 504.269" style="enable-background:new 0 0 504.269 504.269;" xml:space="preserve" width="512px" height="512px" class=""><g><g>
	<g>
		<g>
			<path d="M498.295,157.702c-0.182-0.188-0.367-0.374-0.555-0.555L346.914,6.321c-8.321-8.271-21.759-8.271-30.08,0l-211.2,211.2     c-3.509,3.489-5.696,8.089-6.187,13.013L84.3,336.134l85.333,85.333l105.6-15.147c4.595-0.617,8.863-2.714,12.16-5.973     l210.347-212.48C506.223,179.691,506.472,166.186,498.295,157.702z M196.087,337.201l-30.293-29.227l30.08-30.08l30.08,30.08     L196.087,337.201z M241.314,291.974l-30.08-30.08l30.08-30.08l30.08,30.08L241.314,291.974z M392.14,202.587v-1.067     l-60.373,60.373c-8.321,8.271-21.759,8.271-30.08,0l-60.373-59.307c-8.271-8.321-8.271-21.759,0-30.08l60.373-60.373     c8.321-8.271,21.759-8.271,30.08,0l60.373,60.373C400.412,180.828,400.412,194.266,392.14,202.587z" data-original="#000000" class="active-path" data-old_color="#b8e994" fill="#b8e994"/>
			<path d="M45.047,368.347c-8.271,8.321-8.271,21.759,0,30.08l60.373,60.373c8.321,8.271,21.759,8.271,30.08,0l21.333-21.333     l-90.027-90.667L45.047,368.347z" data-original="#000000" class="active-path" data-old_color="#b8e994" fill="#b8e994"/>
			
				<rect x="15.549" y="436.442" transform="matrix(-0.7071 -0.7071 0.7071 -0.7071 -267.4457 823.7584)" width="42.667" height="61.654" data-original="#000000" class="active-path" data-old_color="#b8e994" fill="#b8e994"/>
		</g>
	</g>
</g></g> </svg>
